<?xml version="1.0" encoding="UTF-8" standalone="no"?>
<!-- Created with Inkscape (http://www.inkscape.org/) -->

<svg
   width="1323mm"
   height="582mm"
   viewBox="0 0 1323 582"
   version="1.1"
   id="svg5"
   xml:space="preserve"
   inkscape:version="1.2.1 (9c6d41e410, 2022-07-14)"
   sodipodi:docname="bg.svg"
   xmlns:inkscape="http://www.inkscape.org/namespaces/inkscape"
   xmlns:sodipodi="http://sodipodi.sourceforge.net/DTD/sodipodi-0.dtd"
   xmlns="http://www.w3.org/2000/svg"
   xmlns:svg="http://www.w3.org/2000/svg"><sodipodi:namedview
     id="namedview7"
     pagecolor="#ffffff"
     bordercolor="#000000"
     borderopacity="0.25"
     inkscape:showpageshadow="2"
     inkscape:pageopacity="0.0"
     inkscape:pagecheckerboard="0"
     inkscape:deskcolor="#d1d1d1"
     inkscape:document-units="mm"
     showgrid="false"
     inkscape:zoom="0.09064429"
     inkscape:cx="-231.67482"
     inkscape:cy="579.18706"
     inkscape:window-width="1920"
     inkscape:window-height="1001"
     inkscape:window-x="-9"
     inkscape:window-y="-9"
     inkscape:window-maximized="1"
     inkscape:current-layer="layer1" /><defs
     id="defs2" /><g
     inkscape:label="Layer 1"
     inkscape:groupmode="layer"
     id="layer1"><circle
       style="fill:#e37f6c;fill-opacity:1;stroke:none;stroke-width:8.77819;stroke-linecap:round"
       id="path316"
       cx="345.6008"
       cy="170.73296"
       r="100" /><g
       id="g180"
       transform="matrix(0.26458333,0,0,0.26458333,0.01553317,0.02379684)"
       inkscape:export-filename="g180.png"
       inkscape:export-xdpi="96"
       inkscape:export-ydpi="96"><path
         d="m 4512.5,2020.8 c -40.4,-2.3 -47.2,-16 -76.9,-14.1 -31.1,2 -38,-19.3 -89.1,-20 -12,-0.2 -13.2,0.3 -20.1,7.8 -4,4.4 -6.8,8.7 -6.3,9.7 1.5,2.4 16.2,5.9 16.2,8.7 0,2.8 6.3,0.9 7.8,5.1 0.6,1.7 5.6,5.4 11,8.2 9.6,5 9.8,5.3 8.4,13.9 -12.9,82.3 23.5,155.3 19.6,155.3 0.7,2 3.2,1.6 9.8,-1.3 7.7,-3.5 10.2,-6.5 18.9,-23.4 12.3,-23.9 11.3,-17.9 21.1,-37.7 15.3,-30.9 1.3,-26.4 14.2,-55.1 9.3,-20.8 10.8,-30.4 15.4,-33.9 6.4,-4.9 24.9,-3.2 42.4,3.7 19.6,7.8 20,7.9 29.1,1.6 8.4,-5.7 9.3,-12.2 2.9,-21.2 -3.9,-5.8 -5.4,-6.2 -24.4,-7.3 z"
         id="path132" /><path
         d="m 3670.5,1970.2 c -40.1,-5.3 -52.4,-19.6 -63.6,-22 -3.6,-0.8 -12.4,-4 -19.6,-7.1 -14.8,-6.5 -15.3,-5.7 -86.8,-6.5 l -15.7,14.4 c 28.1,6.8 45.5,24.9 43.3,31.9 -2.7,8.7 -6.6,1.3 -11.4,33.9 -1.5,10.1 2,50.3 5.8,67.6 3.6,16.3 13.6,42.3 17.3,45.3 -0.3,0.3 7.6,6.5 23.7,-2 9.4,-5 9.1,-4.4 12.9,-27.9 1.2,-7.4 2.5,-10.8 11.6,-33.4 3.5,-8.7 1.6,-21.2 4.6,-21.2 3.1,0 1.4,-6.5 4.1,-6.5 2.8,0 4,-19.6 6.9,-19.6 2.8,0 0.5,-4.8 6.4,-16.4 7.6,-15 -1.2,-14.9 24.5,-13 42.9,3.2 -0.8,5.4 59.4,5.4 0.2,-9.8 2.6,-19.5 -23.4,-22.9 z"
         id="path134" /><path
         d="m 4994.6,1712.6 c -12.1,-6.3 -11.7,1.5 -56.1,-15 -13.5,-5 -37,-6.2 -57.1,-12.5 -16.2,-5.1 -63.9,-7.5 -75.6,-3.8 -9.3,3 -13.6,17.3 -5.3,17.3 6,0 7.8,5.2 15,7.5 7.3,2.3 10.3,9.4 6,14.2 -19.2,21.2 -12.1,133.8 -6.5,131.7 1.6,-0.6 4.6,-0.1 6.8,1.2 4.9,2.9 4.6,2.8 9.2,0.4 8.9,-4.8 38.1,-51.3 47.4,-61.3 10.3,-11.2 -1.6,-12.6 16.8,-32.1 10.1,-10.6 15.8,-26.6 23.4,-30.4 22.2,-11.3 49.7,13.8 72.3,3.1 5.9,-2.8 8,-5.3 8.8,-10.4 0.8,-5.6 0,-7.2 -5.1,-9.9 z"
         id="path136" /><path
         d="m 3517.8,1748.6 c 35.4,-13.5 89.7,-0.9 94.4,-8.4 3.6,-5.8 -1.5,-10.7 -12.5,-12.2 -47.8,-6.5 -47.6,-10.1 -57.6,-19.6 0.6,-11.7 2.3,-59.2 6,-68.2 4.2,-10.3 23.3,-27.7 24.7,-31.5 1.1,-3 10.7,-16.8 12.8,-20 -7.5,-10.1 -13.7,-20.1 -30.3,-13.5 -13.2,5.3 -17.6,11.2 -32.8,18.7 -16.3,8 -23.2,17.5 -26.6,17.5 -3.1,0 -30,26.9 -33.3,33.2 -6.3,12.2 0.9,40.7 -7.4,45.9 -9,5.6 1.9,8.2 -15.8,8.2 -17.7,0 -26.9,3.4 -32,11.8 -2.5,4 -4.5,7.8 -4.5,8.4 0,0.6 3.6,1.8 8.1,2.6 11.6,2.2 55.4,24.4 71.5,28 0,-0.3 24.1,3.3 35.3,-0.9 z"
         id="path138" /><path
         d="m 2728.5,1540.9 c -11.7,-4.4 -12.7,-5.3 -13.9,-12.8 -2.5,-15.6 -29,-36.8 -32.6,-48.2 -1.8,-5.6 -12.5,-19.6 -21.6,-28 -6.7,-6.2 -19.1,-8.5 -21.9,-3.9 -0.5,0.9 -21.7,59.1 -5.2,64.3 4.9,1.6 4.1,7.4 4.1,12.5 l -29.7,-2.8 c -16.3,16.7 -20.7,19.3 -3.6,20.3 10.3,0.6 17.9,16.3 22.9,18.5 3.1,1.4 1.6,12.5 -2.8,21.1 -5,9.8 -6.7,24.9 -7.2,65.8 -0.3,24 0.2,29 2.9,29.7 0,-0.2 0.8,0.8 14.2,1.1 9.4,0.2 12,-0.7 18.9,-6.8 8,-7.1 15.6,-19.5 15.9,-25.7 0.1,-3.3 9.8,-16.8 26.5,-37.1 10.6,-12.9 13.3,-18 15.1,-29 1.9,-11.5 7.5,-13.7 26.7,-10.8 35.1,5.4 48.6,16.7 48.6,-1.5 0,-25.2 -24.5,-14.4 -57.3,-26.7 z"
         id="path140" /><path
         d="m 3554.3,1396.9 c 1.5,-0.6 7,-0.2 12.3,0.8 14,2.7 36.9,2.5 36.9,-0.3 0,-9.5 -16.5,-10.4 -95.5,-27.4 -15.3,-3.3 -39.7,-2.7 -39.7,1 0,5.5 5.5,12.2 2.2,24.3 -2.6,9.7 -10.6,13.1 -30.6,13.1 -12.7,0 -14.5,0.6 -21.1,7 -8.7,8.4 -9.2,12.7 -1.4,12.7 9.2,0 45.4,18.3 56.8,28.8 43.6,39.7 109.6,58.4 110.8,59.3 45.6,17.3 -38.2,-51.8 -38.2,-59 0,-3.4 29.6,-5.6 40.3,-3 12.3,3 29.8,2.6 34.3,-0.8 2.2,-1.7 3.8,-5.8 3.8,-9.7 0,-23.1 -69.8,-6 -74.3,-28.1 -1.6,-8.6 -0.1,-17.3 3.4,-18.7 z"
         id="path142" /><path
         d="m 3993.9,1485.9 c -25.6,-3.6 -35.1,-11.3 -44.7,-12.3 -7.9,-0.8 -9.7,-7.4 -4.4,-15.5 2.9,-4.4 3.3,-10.2 2.3,-35.6 -2.5,-64.7 -7.7,-34.9 -7.7,-56.2 0,-13.3 -5.1,-17.5 -19.9,-16 -7.1,0.7 -12,2.3 -13.2,4.5 -3.3,5.8 -5,4.8 -12.5,18.9 -8.9,16.7 -22,28.5 -22,31.8 0,4.6 -12.4,4.7 -13.6,33.7 l -0.6,14.2 c -32.6,1.8 -36.7,1.7 -40.3,10.8 -5.5,13.9 -17.9,9.1 -3.6,15.1 12.1,5.1 14.5,2.2 14.5,8.2 0,4.4 4.4,9.4 17.8,20.7 17.5,14.6 7.4,1.1 96.7,-3.4 22.4,-1.1 43.2,-1.1 52.6,0.2 17.9,2.4 27,0.1 27,-6.7 0,-6.4 -7.2,-9.5 -28.4,-12.4 z"
         id="path144" /><path
         d="m 1856.1,1342 c -14.4,-1.4 -16.3,-2.2 -24.3,-10.4 -10.8,-10.9 -28.2,-21.4 -37,-22.3 -24,-2.5 -48,-23.9 -61.8,-16.5 -11.7,6.2 16.3,22.1 -19.3,17.1 -19.4,-2.7 -24.8,-1.4 -29.8,7 -3.8,6.5 -3.8,6.6 0.3,6.6 29.7,0 73.7,67.6 130.7,96 v 0 c 9.8,4.9 8.2,4.5 12.4,2.9 1.9,-0.7 3.4,-2.7 3.4,-4.5 0,-10.8 -28.3,-53.9 -28.3,-56 0,-2.1 45.8,-1.5 55.7,0.7 11.9,2.7 17.5,1.4 20.8,-4.7 1.9,-3.6 1.5,-5.4 -2.4,-9.5 -3.8,-3.8 -8.2,-5.2 -20.4,-6.4 z"
         id="path146" /><path
         d="m 3421.8,1395.5 h 7.3 c -0.2,-31.9 -3.4,-73 -4.9,-89.3 -0.8,-8.6 9.6,-8.1 23.7,1.2 6.3,4.2 14.3,7.8 17.7,8.1 5.5,0.4 6.2,-0.3 6.4,-6.8 0.6,-21.3 21.6,-1.8 37,-8.8 24.3,-11.1 -33.6,-13.6 -60.8,-33.3 -9.8,-7.1 -47,-21.9 -65.1,-25.9 -11.5,-2.6 -12.8,-2.4 -18,1.7 -12,9.4 -42.4,2.5 -54.1,16.7 -4.4,5.4 -5,10 -1.2,10 1.5,0 8.7,3 16,6.6 19.2,9.6 10.5,7.9 25.1,35.9 9,17.4 13.8,27.9 18.2,31.5 4.8,4 0.9,5.7 9.9,14.3 9.8,9.4 0.7,6.2 21,24.9 -0.2,-0.1 12.8,13.2 21.8,13.2 z"
         id="path148" /><path
         d="m 1539.4,1249.3 c -6.4,-5.3 4.3,-7.6 -12.6,-9.7 -28.4,-3.6 -61,-20.3 -92.8,-31 -15.4,-5.2 -17.2,-5.3 -41.2,-3.2 -20.2,1.8 -25.9,3.1 -29.4,6.5 -14.6,14.6 23.5,2.1 29.4,26.7 13.9,57.7 41.6,121.3 55,126.3 v 0 c 16.9,6.3 4.5,-15.1 10.5,-18.9 7.1,-4.5 2,-71.5 9.1,-88.4 l 3.5,-8.2 h 15.2 c 23.8,0 44.8,10.8 52.9,10.9 4.8,0 5,-7.2 0.4,-11 z"
         id="path150" /><path
         d="m 1217.3,1203.4 c -24.6,-6.2 -44.8,-15.9 -47.4,-22.8 -2.7,-7.1 -1.4,-2.4 -18.3,-15.1 -10.4,-7.8 -14.1,-9.4 -19.1,-8.4 -12.5,2.5 -6.6,-14.6 -18.2,-14.6 -3,0 -5.4,-1 -5.4,-2.1 0,-5.2 -7.2,1.5 -12.2,11.2 l -5.4,10.7 c 9.9,8 15.3,12.8 -9.1,12.8 -13,0 -16.4,0.8 -20.6,4.7 -12.1,11.4 0.5,3.7 20.7,18.7 l 10.8,8 c 2.5,46.8 2.9,45.9 20.8,44.1 9.1,-0.9 14.8,-2.8 18.1,-5.9 11.8,-11.1 12.7,10.8 31.4,-18.1 l 8.9,-13.7 c 16.6,-1.3 31.1,-3.1 46.7,0.6 27.8,6.6 44.8,1.7 -1.7,-10.1 z"
         id="path152" /><path
         d="m 3867,1203.7 c -1.4,-7.1 -14.1,1.5 -73.9,-28.7 6.6,-52.6 0.9,-91.2 3.1,-134 0.7,-13.5 -1.3,-16.4 -11.4,-16.3 -7.5,0.1 -9.4,1.8 -36.1,33.8 -38.2,45.7 -26.4,38 -45.6,36.1 -2.2,-0.2 0.5,-34.6 3.1,-39.6 2.5,-4.8 31.8,-14.1 38.1,-18.7 4,-2.9 3.9,-3.2 -1.8,-9 -6,-6 -6.1,-6 -35.2,-5.5 -33.6,0.5 -53.1,3.3 -65.5,9.6 -24.3,12.3 -12,8.6 -12,32.5 0,33.7 -38,9.1 -51.4,24.7 -6.3,7.3 -6.9,12.4 -1.4,11 3.5,-0.9 64.7,28.7 72.5,35.1 4.9,4.1 34.9,21.3 34.9,23.4 0,0.8 -2.2,2.2 -4.9,3 -6.7,2 -16.9,11.9 -16.9,16.4 0,6 9.5,1.6 28.4,13.2 31.4,19.3 73.9,16.4 112.4,16.3 55.1,-0.1 64.1,-0.5 63.6,-3.3 z M 3698.5,1136 c -4.2,-4.7 -3.2,-11 1.9,-11 16.4,0 11,25.2 -1.9,11 z"
         id="path154" /><path
         d="m 2439.3,999.6 c -42.1,-6.4 -29.5,-9.9 -71.4,-22.7 -43.2,-13.2 -39.3,-14.8 -55.3,-11.5 -38.8,8 -34.8,-6.5 -50.2,15.1 5.3,1.1 9.7,1.3 26.6,10.4 16.4,8.8 18.6,12.7 15,26.4 -3.9,14.3 2,69.1 10,97.9 10.5,37.8 12,25.6 18.2,29.6 v 0 c 12.9,8.2 11.4,-25 15.4,-27.5 2.9,-1.8 2.1,-12.3 -1.4,-18.4 -4.2,-7.3 -4,-10.4 0.5,-11.9 6.7,-2.3 17.3,-19.1 18.7,-29.5 2.2,-16.7 8.2,-18.4 12.9,-47.6 16.3,-0.8 26.6,-2.1 44.2,2.7 19.4,5.3 27.2,5.5 30.2,0.9 3.5,-5.3 -3.4,-12.3 -13.4,-13.9 z"
         id="path156" /><path
         d="m 2595.5,1047 c 7.2,-1 9.1,8.3 11.6,8.3 3.5,0 6.5,-6.1 6.5,-13.3 0,-8.1 26.2,-89.6 30,-98.3 4.9,-11.3 6.3,-12.8 13.3,-14.1 21.2,-4 49.7,15.3 59.5,10.9 l 4.8,-2.2 c -21.1,-19.8 -46.5,-18.1 -78.6,-39.6 -5.4,-3.6 -65.9,-33.9 -85.2,-20.4 -3.2,2.3 -9.3,4.8 -13.5,5.5 -8.3,1.5 -18.8,12.1 -12,12.1 7,0 20.6,8.9 28.6,18.7 17.1,20.9 2.7,39.7 25.2,115.5 4.4,15.6 5.5,17.5 9.8,16.9 z"
         id="path158" /><path
         d="m 3093.7,974.6 c -11.3,-0.1 -60.6,-11.4 -68.8,-15.7 -3.5,-1.9 -3.8,-3.7 -2.3,-14.5 2.7,-19.7 2.3,-21.9 2.9,-26.6 0.3,-2.2 29.5,-25.4 36.7,-29.1 13.9,-7.2 9,-8.7 -24,-7.1 -67.2,3.2 -77.6,11 -89.1,16.8 4,41 6.7,44.2 -26.7,44.4 -16,0.1 -17.4,0.5 -22.4,6.2 -6.9,8.1 -6.6,10.2 1.3,10.2 9.2,0 23.7,9.5 37.1,14.2 10.2,3.6 86.1,54 87.1,54 10.3,7.3 12,2.9 3.2,-8.6 -3.1,-4 -8.1,-12.7 -11.1,-19.4 -8.5,-18.5 -7.2,-19.2 31.9,-17.6 42.4,1.7 52.4,4.7 52.4,1.7 0.1,-2.3 -5.9,-8.9 -8.2,-8.9 z"
         id="path160" /><path
         d="m 735,994.4 c -5.3,-4.4 -1.2,-6.2 -8.1,-12.4 -7.8,-7.1 -39.4,-4.5 -50.3,-9.6 -15.3,-7.2 -3.5,-66 -20.7,-124.1 -3.2,-10.8 -3.2,-12.2 0.1,-17.8 4.8,-8.2 4.5,-9.7 -2.4,-12.8 -5.7,-2.6 -6.4,-2.2 -16.3,8.9 -5.7,6.4 -10.4,12.4 -10.4,13.4 -0.1,3.6 -5.6,6.8 -23.9,41.2 -13.5,25.3 -11.6,15.5 -9.8,42.5 2,28.8 0.6,30.5 -26.3,33.6 -21.3,2.5 -20.4,3.1 -32.6,15.1 19.2,0 11,0.6 59.9,16.8 28.8,9.6 15.3,7.9 61.1,6.2 34.8,-1.2 39.1,-1 49.1,3 -0.6,0 21.1,8.4 30.3,1.7 3.4,-2.6 3.5,-3.1 0.3,-5.7 z"
         id="path162" /><path
         d="m 3337.5,928 c 0,-8.7 -18.7,0.5 -75.6,-20.7 11.6,-67 9.3,-66.5 19.7,-76 12.6,-11.5 18.9,-37.4 11.6,-47.4 -2.8,-3.8 -3.4,-3.8 -15.5,0.7 -38.1,14.3 -61.8,32.6 -86.4,55.6 4.8,50.8 7.4,51.5 -21.6,51.5 -17.5,0 -19.3,0.4 -23.7,5.5 -6.2,7.1 -6,9.8 0.6,9.8 7.8,0 50.6,23.9 63.3,26.2 0.2,0 9.6,1.8 9.8,1.8 4.5,0.9 66,-4.4 70.5,-6.1 12.5,-4.7 47.3,11 47.3,-0.9 z"
         id="path164" /><path
         d="m 131.4,715.9 c -7.1,-3.6 -11.5,-10.9 -8.8,-14.6 9.3,-12.3 7.7,-81.4 7.5,-88 -0.4,-10.6 -0.8,-11.3 -6.4,-12 -8.9,-1 -9.2,-9.8 -0.6,-18 6.3,-6 9.1,-16.4 4.5,-16.4 -3.4,0 -0.6,-10.9 -5.3,-10.9 -1.7,0 -3.5,-1.2 -4.1,-2.7 -3.2,-9 -30.9,27.8 -51.2,67.7 -10.3,20.3 -10.4,20.5 -10.6,43.2 -0.2,19.2 -0.9,23.7 -4.6,28.7 -5.1,6.8 -13.3,8.4 -25.1,4.9 -18.2,-5.4 -32.6,13 -24.4,13 2,0 6.7,1.9 10.4,4.2 10,6.2 33.9,13.6 44.4,19.8 22.6,13.3 85.1,-1.1 115.1,5.4 13.8,1.7 21.4,7.2 20.3,-2.7 -2,-17.4 -29.8,-5.7 -61.1,-21.6 z"
         id="path166" /><path
         d="m 3846.4,613.2 c 21.5,9.9 4,3.8 16.7,29.3 13.3,26.5 79.7,80.7 88.6,81.2 4.6,0.3 5.1,-9.3 0.9,-16.1 -5.6,-9.2 -14.9,-35.3 -19.2,-42 -4.4,-6.8 -6.2,-30 -2.6,-32.3 4.8,-3 28.9,-7.4 40.5,-7.5 16.1,-0.1 31.8,4.8 39.1,3 4.9,-1.2 9.3,-8.5 6.6,-11.2 -0.7,-0.7 -8.9,-2 -18.2,-2.8 -31.8,-2.9 -27.2,-15 -71.5,-28.3 -53.4,-16.1 -52.2,-15.9 -50.2,-6.8 1.8,8.3 -1.1,9.5 -27.8,11.1 -24,1.5 -21.2,1.2 -31.7,14.3 7.2,0.9 14.3,1.4 28.8,8.1 z"
         id="path168" /><path
         d="m 889.5,695.4 c 16.8,0 4.4,-6.5 -15.7,-6.5 -7.1,0 -40.7,-11.1 -44,-19.6 -6.4,-16.4 2.7,-139.3 -3.8,-146.5 -2,-2.2 -4.8,-4 -6.2,-4 -3.9,0 -47.8,46 -61.3,72.4 -6,11.8 -5.1,11.6 -2.4,64.5 -7.9,5.2 -9,7.3 -26.9,6.8 -17.9,-0.5 -15.9,-0.4 -26.7,12.1 29.3,6.1 30.8,16.4 62.8,25.3 15.5,4.3 18.9,4.5 31.6,2.3 15.8,-2.8 55,-1.7 66,1.8 9.3,3 25.5,8.5 30.5,8.8 6.3,0.3 4.3,-5.4 -3.1,-8.7 -10,-4.6 -10.4,-8.7 -0.8,-8.7 z"
         id="path170" /><path
         d="m 1314.2,653.4 c -12.9,-1.5 -41.3,-11 -45.3,-15.1 -1.5,-1.5 -2.2,-5.3 -1.6,-8.4 0.9,-4.4 3.1,-6.1 10.8,-8.2 5.3,-1.4 11.6,-2.6 14,-2.6 8.2,0 5.1,-11.4 -13.9,-7.8 -7.5,1.4 -12.2,-1.7 -15.2,-10.1 -2.3,-6.6 7.7,-29.2 17.5,-39.6 26.8,-28.4 -18.4,-15.1 -56.1,-3.2 -25.4,8 -36,16.5 -33.8,26.9 3.5,16 3.6,30.8 0.3,33.5 -1.8,1.5 -12.2,3.3 -23.2,4 -18.4,1.2 -20.2,1.7 -24.1,7.2 -4.5,6.3 -3.8,8.7 2.3,8.7 8.3,0 15.5,9 39.3,19 12.4,5.2 17.9,6 47.8,7.2 31.7,0 43.1,4.8 48.2,-1.4 5.2,-6.3 47.4,-0.1 55.4,1.7 -6.5,-6.1 -9.7,-10.3 -22.4,-11.8 z"
         id="path172" /><path
         d="m 1405.2,637 c 18.1,6.2 18.9,6.3 62.6,5.7 24.3,-0.3 44.9,0.2 45.8,1 0,1.6 8.1,2.8 6.9,-1.2 -1.5,-4.6 -36.6,-13.9 -52.8,-26.6 -4,-3.1 -4,-3.8 -0.8,-10.4 2.8,-6 5.9,-8 19.1,-12.5 8.7,-3 16.3,-6.3 16.9,-7.3 2.3,-3.7 -5.1,-5.7 -21.7,-5.7 -14.8,0 -17.1,-0.6 -19.2,-4.6 -7.2,-13.4 7.9,-11 22.6,-7.4 4.7,1.2 7.3,0.4 11.1,-3.2 15.5,-14.5 -18.9,-28.9 -13.4,-40.8 4.5,-9.8 -0.1,-10.6 -25.8,-4.2 -32.6,8.2 -32.8,8.1 -32.7,-15.6 0.2,-28.8 -17,-80.5 -21.2,-83.6 -0.9,-0.7 -4.3,-6.2 -7.6,-12.2 -19.5,-35.7 -23.5,-35.5 -35,1.4 -21.5,68.8 -9.9,58.8 -5.7,90.8 1.3,9.8 0.8,11.8 -3.3,16 -4.3,4.3 -6.2,4.7 -19.3,3.4 -14.2,-1.4 -14.7,-1.3 -20.9,5.3 -5.6,5.9 -5.9,6.7 -2.2,6.7 11.4,0.1 23.7,16.6 33.8,18.5 2.7,0.5 9,5 13.8,9.9 9.4,9.5 8.3,9.3 28.6,5.4 10.1,-1.9 12.8,1.3 13.7,16.8 1,16.1 -0.9,18.8 -15.3,21.4 -22.3,4.1 -14,-17.9 -37.2,9.7 26.6,2.2 25.7,11.9 59.2,23.3 z"
         id="path174" /><path
         d="m 2592.8,481.4 c 31.1,4.6 42.6,2.3 42.6,-8.8 0,-3.4 -0.7,-6.3 -1.6,-6.5 -4.4,-0.9 -72.9,0.9 -80.6,-11.3 -0.9,-1.4 -2.3,-9 -3.2,-16.8 -4.3,-39.1 -11.7,-24.7 28.9,-67.2 -11.5,-8.1 -11.8,-10.1 -41.1,1.6 -30.9,12.3 -42.3,18.6 -54.9,29.8 -21.4,19.3 -4.9,16.9 -1.6,43 1.2,9.3 0.7,11.1 -4.2,15.6 -4.9,4.6 -24.5,9.9 -36.3,9.9 -5.5,0 -24.8,15.3 -8.1,15.3 12.4,0 2.4,3.9 43.5,7.7 6.8,0 41,5.7 61.5,-3 31.9,-13.5 45.3,-10.7 55.1,-9.3 z"
         id="path176" /><path
         d="m 2196.7,111.3 c -7.5,-4.7 -49.8,-7.4 -65.5,-21.4 -5.1,-4.6 -3.5,-13.5 -13.3,-26.3 -9.5,-12.4 -13.6,-19.9 -20.4,-22.5 -9.1,-3.4 1.8,-4.8 -18.7,-21.9 -21.7,-18 -19.9,-21.8 -23.9,-17.9 -7.3,7.2 -13.3,-7.3 -12,32.5 0.6,18.4 2.6,23.6 13.7,35.6 5.5,6 6.6,12.2 2.3,13.7 -1.5,0.5 -8.7,0.5 -16,-0.1 -12.4,-1 -13.7,-0.6 -19.1,5.2 -12.3,13.3 -2.8,2.8 18.7,17 22.4,14.9 20.8,13 19.7,24.8 -1,10.7 3.4,30.4 9.4,42.1 2.8,5.4 3.5,5.6 14,4 13.3,-2.1 28.9,-10.3 29.6,-15.7 1.1,-7.5 6.6,-4.1 25,-43 38.9,0 59.7,10.7 62.3,8.1 2.8,-2.4 -1,-11.2 -5.8,-14.2 z"
         id="path178" /></g></g></svg>
